# xmcd
#
# Track frame offsets: 
#        300
#        16800
#        37685
#        61190
#        83575
#        99174
#        118843
#        140370
#        157569
#        166649
#        183768
#        205761
#
# Disc length: 2913 seconds
#
# Revision: 0
# Processed by: cddbd v1.5.2PL0 Copyright (c) Steve Scherf et al.
# Submitted via: ExactAudioCopy v0.99pb5
#
DISCID=780b5d0c
DTITLE=Erja Lyytinen - Grip Of The Blues
DYEAR=2008
DGENRE=General Blues
TTITLE0=Broadcast
TTITLE1=Everything's Fine
TTITLE2=Grip Of The Blues
TTITLE3=Steamy Windows
TTITLE4=Inner Beauty
TTITLE5=Let It Shine
TTITLE6=Wish I Had You
TTITLE7=Unreachable
TTITLE8=Voyager's Tale
TTITLE9=Rollin' and Tumblin'
TTITLE10=Wanna Get Closer
TTITLE11=Dissatisfaction
EXTD=
EXTT0=
EXTT1=
EXTT2=
EXTT3=
EXTT4=
EXTT5=
EXTT6=
EXTT7=
EXTT8=
EXTT9=
EXTT10=
EXTT11=
PLAYORDER=
